<svg width="720" height="180" viewBox="0 0 720 180" fill="none" xmlns="http://www.w3.org/2000/svg">
<path fill-rule="evenodd" clip-rule="evenodd" d="M60 0H660C693.138 0 720 26.862 720 60V120C720 153.138 693.138 180 660 180H60C26.8629 180 0 153.138 0 120V60C0 26.862 26.8629 0 60 0ZM630 120C646.569 120 660 106.569 660 90C660 73.431 646.569 60 630 60C613.431 60 600 73.431 600 90C600 106.569 613.431 120 630 120ZM540 120C556.569 120 570 106.569 570 90C570 73.431 556.569 60 540 60C523.431 60 510 73.431 510 90C510 106.569 523.431 120 540 120Z" fill="#B5B5B5"/>
</svg>
