<svg width="250" height="250" viewBox="0 0 250 250" fill="none" xmlns="http://www.w3.org/2000/svg">
<path fill-rule="evenodd" clip-rule="evenodd" d="M115.329 0C96.721 0 81.6359 14.2207 81.6359 31.763C81.6359 34.3052 79.7763 37.6971 75.3315 39.9728C73.9637 40.673 72.6148 41.4012 71.2857 42.1566C66.8527 44.6759 62.6913 44.5141 60.2481 43.1962C44.0208 34.4435 23.3424 39.6666 13.9313 54.8954L4.5909 70.0096C-4.8382 85.2676 0.726366 104.846 16.9847 113.615C19.3419 114.888 21.5583 118.121 21.4503 122.933C21.435 123.62 21.4271 124.31 21.4271 125C21.4271 125.691 21.435 126.38 21.4503 127.067C21.5583 131.88 19.342 135.114 16.985 136.385C0.726764 145.154 -4.8378 164.733 4.5913 179.99L13.932 195.105C23.343 210.334 44.0212 215.556 60.2485 206.804C62.6917 205.486 66.8528 205.324 71.2857 207.844C72.6148 208.599 73.9637 209.328 75.3315 210.028C79.7763 212.303 81.6359 215.695 81.6359 218.237C81.6359 235.779 96.721 250 115.329 250H134.671C153.279 250 168.364 235.779 168.364 218.237C168.364 215.695 170.224 212.303 174.669 210.028C176.036 209.328 177.385 208.599 178.714 207.844C183.147 205.324 187.308 205.486 189.751 206.804C205.979 215.556 226.657 210.334 236.068 195.105L245.409 179.99C254.838 164.733 249.273 145.154 233.015 136.385C230.658 135.114 228.442 131.88 228.549 127.067C228.565 126.38 228.573 125.69 228.573 125C228.573 124.31 228.565 123.62 228.549 122.933C228.442 118.12 230.658 114.886 233.015 113.615C249.274 104.846 254.838 85.2675 245.409 70.0095L236.069 54.8953C226.657 39.6665 205.979 34.4434 189.751 43.1961C187.309 44.5141 183.147 44.6757 178.714 42.1565C177.385 41.4011 176.037 40.673 174.669 39.9728C170.224 37.6971 168.364 34.3052 168.364 31.763C168.364 14.2207 153.279 0 134.671 0H115.329ZM124.999 87.5C103.029 87.5 85.22 104.289 85.22 125C85.22 145.711 103.029 162.5 124.999 162.5C146.969 162.5 164.778 145.711 164.778 125C164.778 104.289 146.969 87.5 124.999 87.5Z" fill="#FCFCFC"/>
</svg>
